<svg xmlns="http://www.w3.org/2000/svg" width="36" height="31" viewBox="0 0 36 31" fill="none">
<path d="M19.0364 4.56252C13.6633 4.56252 9.11743 8.08303 7.57251 12.9365C9.86938 11.7744 12.4602 11.125 15.2083 11.125H21.2239C21.8254 11.125 22.3176 11.6172 22.3176 12.2188C22.3176 12.8203 21.8254 13.3125 21.2239 13.3125H15.2083C14.0735 13.3125 12.9729 13.4424 11.9065 13.6817C10.136 14.085 8.49536 14.8028 7.02563 15.7803C3.06079 18.4258 0.442627 22.9444 0.442627 28.0781V29.1719C0.442627 30.0811 1.17407 30.8125 2.08325 30.8125C2.99243 30.8125 3.72388 30.0811 3.72388 29.1719V28.0781C3.72388 24.749 5.13892 21.7549 7.40161 19.6563C8.75513 24.8174 13.4514 28.625 19.0364 28.625H19.1047C28.135 28.5772 35.4426 19.6768 35.4426 8.7051C35.4426 5.79299 34.9299 3.02443 34.0002 0.529316C33.8225 0.0576363 33.1321 0.0781442 32.8928 0.52248C31.6077 2.92873 29.0647 4.56252 26.1458 4.56252H19.0364Z" fill="#00CA5B"/>
</svg>