<svg xmlns="http://www.w3.org/2000/svg" width="36" height="35" viewBox="0 0 36 35" fill="none">
<g clip-path="url(#clip0_1443_1746)">
<path d="M17.9426 0C8.27661 0 0.442627 6.85645 0.442627 15.3125C0.442627 20.1045 2.96509 24.377 6.90259 27.1865C7.55884 27.6582 7.94165 28.4238 7.82544 29.2305L7.18286 33.7559C7.08716 34.4121 7.59302 35 8.2561 35H13.5676V31.1719C13.5676 30.8711 13.8137 30.625 14.1145 30.625H15.2083C15.509 30.625 15.7551 30.8711 15.7551 31.1719V35H20.1301V31.1719C20.1301 30.8711 20.3762 30.625 20.677 30.625H21.7708C22.0715 30.625 22.3176 30.8711 22.3176 31.1719V35H27.6292C28.2922 35 28.7981 34.4121 28.7024 33.7559L28.0598 29.2305C27.9436 28.4307 28.3196 27.6582 28.9827 27.1865C32.9202 24.377 35.4426 20.1045 35.4426 15.3125C35.4426 6.85645 27.6086 0 17.9426 0ZM11.3801 21.875C8.96704 21.875 7.00513 19.9131 7.00513 17.5C7.00513 15.0869 8.96704 13.125 11.3801 13.125C13.7932 13.125 15.7551 15.0869 15.7551 17.5C15.7551 19.9131 13.7932 21.875 11.3801 21.875ZM24.5051 21.875C22.092 21.875 20.1301 19.9131 20.1301 17.5C20.1301 15.0869 22.092 13.125 24.5051 13.125C26.9182 13.125 28.8801 15.0869 28.8801 17.5C28.8801 19.9131 26.9182 21.875 24.5051 21.875Z" fill="#FF3838"/>
</g>
<defs>
<clipPath id="clip0_1443_1746">
<rect width="35" height="35" fill="white" transform="translate(0.442627)"/>
</clipPath>
</defs>
</svg>