<svg xmlns="http://www.w3.org/2000/svg" width="16" height="17" viewBox="0 0 16 17" fill="none">
<path d="M3.74357 14.4996C3.43674 14.4996 3.18055 14.3968 2.97499 14.1912C2.76943 13.9857 2.66666 13.7295 2.66666 13.4226V4.9098C2.66666 4.60297 2.76943 4.34678 2.97499 4.14122C3.18055 3.93566 3.43674 3.83289 3.74357 3.83289H4.92306V2.3457H5.64101V3.83289H10.4102V2.3457H11.0769V3.83289H12.2564C12.5632 3.83289 12.8194 3.93566 13.025 4.14122C13.2305 4.34678 13.3333 4.60297 13.3333 4.9098V13.4226C13.3333 13.7295 13.2305 13.9857 13.025 14.1912C12.8194 14.3968 12.5632 14.4996 12.2564 14.4996H3.74357ZM3.74357 13.8329H12.2564C12.359 13.8329 12.453 13.7902 12.5385 13.7047C12.6239 13.6192 12.6667 13.5252 12.6667 13.4226V7.57647H3.33332V13.4226C3.33332 13.5252 3.37606 13.6192 3.46152 13.7047C3.547 13.7902 3.64102 13.8329 3.74357 13.8329ZM3.33332 6.9098H12.6667V4.9098C12.6667 4.80725 12.6239 4.71323 12.5385 4.62775C12.453 4.54229 12.359 4.49955 12.2564 4.49955H3.74357C3.64102 4.49955 3.547 4.54229 3.46152 4.62775C3.37606 4.71323 3.33332 4.80725 3.33332 4.9098V6.9098ZM7.99999 9.93545C7.86238 9.93545 7.74251 9.88438 7.64037 9.78224C7.53824 9.6801 7.48717 9.56024 7.48717 9.42264C7.48717 9.28503 7.53824 9.16515 7.64037 9.06302C7.74251 8.96088 7.86238 8.9098 7.99999 8.9098C8.1376 8.9098 8.25747 8.96088 8.35961 9.06302C8.46174 9.16515 8.51281 9.28503 8.51281 9.42264C8.51281 9.56024 8.46174 9.6801 8.35961 9.78224C8.25747 9.88438 8.1376 9.93545 7.99999 9.93545ZM5.33332 9.93545C5.19571 9.93545 5.07584 9.88438 4.97371 9.78224C4.87157 9.6801 4.82051 9.56024 4.82051 9.42264C4.82051 9.28503 4.87157 9.16515 4.97371 9.06302C5.07584 8.96088 5.19571 8.9098 5.33332 8.9098C5.47093 8.9098 5.59081 8.96088 5.69294 9.06302C5.79507 9.16515 5.84614 9.28503 5.84614 9.42264C5.84614 9.56024 5.79507 9.6801 5.69294 9.78224C5.59081 9.88438 5.47093 9.93545 5.33332 9.93545ZM10.6667 9.93545C10.529 9.93545 10.4092 9.88438 10.307 9.78224C10.2049 9.6801 10.1538 9.56024 10.1538 9.42264C10.1538 9.28503 10.2049 9.16515 10.307 9.06302C10.4092 8.96088 10.529 8.9098 10.6667 8.9098C10.8043 8.9098 10.9241 8.96088 11.0263 9.06302C11.1284 9.16515 11.1795 9.28503 11.1795 9.42264C11.1795 9.56024 11.1284 9.6801 11.0263 9.78224C10.9241 9.88438 10.8043 9.93545 10.6667 9.93545ZM7.99999 12.4996C7.86238 12.4996 7.74251 12.4485 7.64037 12.3464C7.53824 12.2442 7.48717 12.1243 7.48717 11.9867C7.48717 11.8491 7.53824 11.7293 7.64037 11.6271C7.74251 11.525 7.86238 11.4739 7.99999 11.4739C8.1376 11.4739 8.25747 11.525 8.35961 11.6271C8.46174 11.7293 8.51281 11.8491 8.51281 11.9867C8.51281 12.1243 8.46174 12.2442 8.35961 12.3464C8.25747 12.4485 8.1376 12.4996 7.99999 12.4996ZM5.33332 12.4996C5.19571 12.4996 5.07584 12.4485 4.97371 12.3464C4.87157 12.2442 4.82051 12.1243 4.82051 11.9867C4.82051 11.8491 4.87157 11.7293 4.97371 11.6271C5.07584 11.525 5.19571 11.4739 5.33332 11.4739C5.47093 11.4739 5.59081 11.525 5.69294 11.6271C5.79507 11.7293 5.84614 11.8491 5.84614 11.9867C5.84614 12.1243 5.79507 12.2442 5.69294 12.3464C5.59081 12.4485 5.47093 12.4996 5.33332 12.4996ZM10.6667 12.4996C10.529 12.4996 10.4092 12.4485 10.307 12.3464C10.2049 12.2442 10.1538 12.1243 10.1538 11.9867C10.1538 11.8491 10.2049 11.7293 10.307 11.6271C10.4092 11.525 10.529 11.4739 10.6667 11.4739C10.8043 11.4739 10.9241 11.525 11.0263 11.6271C11.1284 11.7293 11.1795 11.8491 11.1795 11.9867C11.1795 12.1243 11.1284 12.2442 11.0263 12.3464C10.9241 12.4485 10.8043 12.4996 10.6667 12.4996Z" fill="#000C0F"/>
</svg>