<svg xmlns="http://www.w3.org/2000/svg" width="16" height="17" viewBox="0 0 16 17" fill="none">
<path d="M7.99999 11.9067C9.2111 10.9495 10.125 10.032 10.7417 9.15418C11.3583 8.2764 11.6667 7.42511 11.6667 6.60033C11.6667 5.91784 11.5421 5.33589 11.2929 4.85448C11.0438 4.37308 10.7333 3.98344 10.3615 3.68558C9.98973 3.38772 9.59126 3.17127 9.16611 3.03623C8.74096 2.90118 8.35226 2.83366 7.99999 2.83366C7.64772 2.83366 7.25902 2.90118 6.83387 3.03623C6.40872 3.17127 6.01025 3.38772 5.63846 3.68558C5.26666 3.98344 4.95618 4.37308 4.70704 4.85448C4.4579 5.33589 4.33332 5.91784 4.33332 6.60033C4.33332 7.42511 4.64166 8.2764 5.25832 9.15418C5.87499 10.032 6.78888 10.9495 7.99999 11.9067ZM7.99999 12.7567C6.54443 11.661 5.45832 10.6029 4.74166 9.58238C4.02499 8.56186 3.66666 7.56779 3.66666 6.60014C3.66666 5.86925 3.79764 5.22844 4.05961 4.67771C4.32157 4.12698 4.6591 3.66443 5.07219 3.29008C5.48529 2.91571 5.95002 2.63494 6.46639 2.44776C6.98275 2.26058 7.49395 2.16699 7.99999 2.16699C8.50603 2.16699 9.01723 2.26058 9.53359 2.44776C10.05 2.63494 10.5147 2.91571 10.9278 3.29008C11.3409 3.66443 11.6784 4.12698 11.9404 4.67771C12.2023 5.22844 12.3333 5.86925 12.3333 6.60014C12.3333 7.56779 11.975 8.56186 11.2583 9.58238C10.5417 10.6029 9.45555 11.661 7.99999 12.7567ZM7.99999 7.50033C8.28119 7.50033 8.51816 7.40396 8.71089 7.21123C8.90362 7.01849 8.99999 6.78153 8.99999 6.50033C8.99999 6.21913 8.90362 5.98216 8.71089 5.78943C8.51816 5.59669 8.28119 5.50033 7.99999 5.50033C7.71879 5.50033 7.48182 5.59669 7.28909 5.78943C7.09636 5.98216 6.99999 6.21913 6.99999 6.50033C6.99999 6.78153 7.09636 7.01849 7.28909 7.21123C7.48182 7.40396 7.71879 7.50033 7.99999 7.50033ZM3.66666 14.8337V14.167H12.3333V14.8337H3.66666Z" fill="#000C0F" stroke="black" stroke-width="0.25"/>
</svg>