<svg xmlns="http://www.w3.org/2000/svg" width="30" height="30" viewBox="0 0 30 30" fill="none">
<path d="M29.2635 18.4875L25.6176 24.8021C24.903 26.0563 23.576 26.7125 22.2343 26.625H19.3176V29.5417L15.6718 22.9792L19.3176 16.4167V19.3334H23.4301L20.1926 13.7188L26.5072 10.0729L29.1322 14.6229C29.8905 15.7459 29.9926 17.2479 29.2635 18.4875ZM10.8739 0.462524H18.1655C19.5947 0.462524 20.8343 1.29377 21.4322 2.48961L22.8905 5.02711L25.4135 3.56877L21.5635 10L14.053 10.1313L16.576 8.67294L14.5197 5.10002L11.2968 10.7146L4.96763 7.06877L7.59263 2.51877C8.19054 1.30836 9.43013 0.462524 10.8739 0.462524ZM4.80721 24.8167L1.16138 18.5021C0.446793 17.2625 0.548876 15.775 1.29263 14.6521L2.75096 12.1292L0.228043 10.6709L7.72388 10.7875L11.5885 17.2334L9.06554 15.775L7.00929 19.3334H13.4843V26.625H8.23429C7.55107 26.6745 6.86768 26.5312 6.26184 26.2115C5.656 25.8919 5.15202 25.4086 4.80721 24.8167Z" fill="#035F77"/>
</svg>