<svg xmlns="http://www.w3.org/2000/svg" width="26" height="31" viewBox="0 0 26 31" fill="none">
<path d="M24.3993 11.02L21.2726 29.6867C21.2236 29.9545 21.0825 30.1968 20.8737 30.3715C20.6649 30.5462 20.4015 30.6424 20.1293 30.6434H5.75595C5.48369 30.6424 5.22036 30.5462 5.01155 30.3715C4.80275 30.1968 4.66162 29.9545 4.61262 29.6867L1.48595 11.02C1.45902 10.8539 1.46835 10.6839 1.5133 10.5217C1.55826 10.3595 1.63777 10.209 1.74638 10.0804C1.855 9.95187 1.99014 9.84833 2.14254 9.77691C2.29494 9.7055 2.46099 9.6679 2.62928 9.66671H23.2326C23.4029 9.66451 23.5716 9.69961 23.7268 9.76954C23.8821 9.83948 24.0201 9.94254 24.1313 10.0715C24.2425 10.2005 24.3241 10.3522 24.3704 10.5161C24.4167 10.6799 24.4265 10.852 24.3993 11.02ZM25.7759 6.16671C25.7759 6.47613 25.653 6.77287 25.4342 6.99166C25.2154 7.21046 24.9187 7.33337 24.6093 7.33337H1.27595C0.966531 7.33337 0.669785 7.21046 0.450992 6.99166C0.2322 6.77287 0.109283 6.47613 0.109283 6.16671C0.109283 5.85729 0.2322 5.56054 0.450992 5.34175C0.669785 5.12296 0.966531 5.00004 1.27595 5.00004H7.10928V1.50004C7.10928 1.19062 7.2322 0.893875 7.45099 0.675083C7.66978 0.45629 7.96653 0.333374 8.27595 0.333374H17.6093C17.9187 0.333374 18.2154 0.45629 18.4342 0.675083C18.653 0.893875 18.7759 1.19062 18.7759 1.50004V5.00004H24.6093C24.9187 5.00004 25.2154 5.12296 25.4342 5.34175C25.653 5.56054 25.7759 5.85729 25.7759 6.16671ZM16.4426 5.00004V2.66671H9.44262V5.00004H16.4426Z" fill="#121212"/>
</svg>