<svg xmlns="http://www.w3.org/2000/svg" width="12" height="12" viewBox="0 0 12 12" fill="none">
<path d="M6 5.18194C5.29286 5.18194 4.6875 4.93016 4.18393 4.42659C3.68036 3.92301 3.42857 3.31766 3.42857 2.61051C3.42857 1.90336 3.68036 1.29799 4.18393 0.79442C4.6875 0.290848 5.29286 0.0390625 6 0.0390625C6.70714 0.0390625 7.3125 0.290848 7.81607 0.79442C8.31964 1.29799 8.57143 1.90336 8.57143 2.61051C8.57143 3.31766 8.31964 3.92301 7.81607 4.42659C7.3125 4.93016 6.70714 5.18194 6 5.18194ZM0 11.3798V9.96874C0 9.6149 0.103022 9.28386 0.309064 8.97561C0.515107 8.66737 0.792307 8.42809 1.14066 8.25776C1.94945 7.86984 2.75879 7.57891 3.56867 7.38495C4.37857 7.19099 5.18901 7.09401 6 7.09401C6.81099 7.09401 7.62143 7.19099 8.43133 7.38495C9.24121 7.57891 10.0505 7.86984 10.8593 8.25776C11.2077 8.42809 11.4849 8.66737 11.6909 8.97561C11.897 9.28386 12 9.6149 12 9.96874V11.3798H0ZM0.857143 10.5226H11.1429V9.96874C11.1429 9.77864 11.0816 9.60007 10.9591 9.43303C10.8365 9.266 10.667 9.12479 10.4505 9.00941C9.74506 8.66765 9.01766 8.40584 8.26834 8.22396C7.51904 8.04209 6.76293 7.95116 6 7.95116C5.23707 7.95116 4.48096 8.04209 3.73166 8.22396C2.98234 8.40584 2.25494 8.66765 1.54946 9.00941C1.33297 9.12479 1.16346 9.266 1.04094 9.43303C0.918407 9.60007 0.857143 9.77864 0.857143 9.96874V10.5226ZM6 4.3248C6.47143 4.3248 6.875 4.15694 7.21071 3.82123C7.54643 3.48551 7.71429 3.08194 7.71429 2.61051C7.71429 2.13909 7.54643 1.73551 7.21071 1.3998C6.875 1.06408 6.47143 0.896228 6 0.896228C5.52857 0.896228 5.125 1.06408 4.78929 1.3998C4.45357 1.73551 4.28571 2.13909 4.28571 2.61051C4.28571 3.08194 4.45357 3.48551 4.78929 3.82123C5.125 4.15694 5.52857 4.3248 6 4.3248Z" fill="#000C0F"/>
</svg>