<svg xmlns="http://www.w3.org/2000/svg" width="14" height="10" viewBox="0 0 14 10" fill="none">
<path d="M7.99999 5.78207C7.62393 5.78207 7.30769 5.65386 7.05128 5.39745C6.79487 5.14104 6.66666 4.8248 6.66666 4.44873C6.66666 4.07267 6.79487 3.75643 7.05128 3.50002C7.30769 3.24361 7.62393 3.1154 7.99999 3.1154C8.37606 3.1154 8.6923 3.24361 8.94871 3.50002C9.20512 3.75643 9.33333 4.07267 9.33333 4.44873C9.33333 4.8248 9.20512 5.14104 8.94871 5.39745C8.6923 5.65386 8.37606 5.78207 7.99999 5.78207ZM3.87179 7.91027C3.57564 7.91027 3.32211 7.80482 3.11121 7.59393C2.90031 7.38303 2.79486 7.12951 2.79486 6.83335V2.06412C2.79486 1.76796 2.90031 1.51443 3.11121 1.30353C3.32211 1.09263 3.57564 0.987183 3.87179 0.987183H12.1282C12.4244 0.987183 12.6779 1.09263 12.8888 1.30353C13.0997 1.51443 13.2051 1.76796 13.2051 2.06412V6.83335C13.2051 7.12951 13.0997 7.38303 12.8888 7.59393C12.6779 7.80482 12.4244 7.91027 12.1282 7.91027H3.87179ZM4.53846 7.2436H11.4615C11.4615 6.94531 11.567 6.69125 11.7779 6.48142C11.9888 6.27159 12.2423 6.16668 12.5385 6.16668V2.73078C12.2402 2.73078 11.9861 2.62533 11.7763 2.41443C11.5664 2.20354 11.4615 1.95002 11.4615 1.65387H4.53846C4.53846 1.95216 4.43301 2.20622 4.22211 2.41605C4.01121 2.62587 3.75768 2.73078 3.46153 2.73078V6.16668C3.75983 6.16668 4.01389 6.27213 4.22371 6.48303C4.43354 6.69392 4.53846 6.94744 4.53846 7.2436ZM11.2308 9.91028H1.87178C1.57562 9.91028 1.3221 9.80483 1.11121 9.59393C0.900311 9.38303 0.794861 9.12951 0.794861 8.83335V2.96155H1.46153V8.83335C1.46153 8.93592 1.50426 9.02993 1.58973 9.1154C1.67521 9.20087 1.76922 9.2436 1.87178 9.2436H11.2308V9.91028ZM3.87179 7.2436H3.46153V1.65387H3.87179C3.76068 1.65387 3.66453 1.69446 3.58333 1.77565C3.50213 1.85685 3.46153 1.95301 3.46153 2.06412V6.83335C3.46153 6.94446 3.50213 7.04062 3.58333 7.12182C3.66453 7.20301 3.76068 7.2436 3.87179 7.2436Z" fill="#000C0F"/>
</svg>