<svg xmlns="http://www.w3.org/2000/svg" width="16" height="17" viewBox="0 0 16 17" fill="none">
<path d="M6.41538 6.96657L7.68076 4.90119L6.83846 3.51144C6.73076 3.32341 6.56901 3.22939 6.35319 3.22939C6.13738 3.22939 5.97353 3.32368 5.86164 3.51227L4.49101 5.81786L6.41538 6.96657ZM11.8764 10.8076L10.6256 8.72554L12.5833 7.59734L13.4833 9.09862C13.5799 9.26187 13.6359 9.44307 13.6513 9.64222C13.6667 9.84137 13.6273 10.0238 13.5333 10.1897C13.4393 10.3862 13.2989 10.5384 13.1122 10.6461C12.9254 10.7538 12.7243 10.8076 12.5088 10.8076H11.8764ZM10.2564 14.7563L7.99999 12.4999L10.2564 10.2435V11.3717H12.9359L12.1179 13.0076C12.0145 13.1956 11.8735 13.3461 11.6949 13.4589C11.5162 13.5717 11.3188 13.6281 11.1026 13.6281H10.2564V14.7563ZM4.79419 13.6281C4.60575 13.6281 4.43482 13.5805 4.28139 13.4852C4.12798 13.3899 4.01538 13.261 3.94358 13.0985C3.87179 12.9456 3.83653 12.7869 3.83781 12.6223C3.83909 12.4578 3.88204 12.3049 3.96666 12.1635L4.44614 11.3717H6.87179V13.6281H4.79419ZM3.39999 12.023L2.48333 10.1897C2.39187 10.0153 2.35106 9.83131 2.36088 9.63772C2.37071 9.44413 2.42629 9.26443 2.52763 9.09862L2.74871 8.72554L1.79486 8.14477L4.88076 7.36914L5.65639 10.4717L4.68589 9.87427L3.39999 12.023ZM11.0154 7.19477L7.92691 6.41961L8.89999 5.84174L7.13718 2.91016H9.12564C9.32308 2.91016 9.50876 2.95928 9.68269 3.05754C9.85663 3.1558 9.9953 3.28915 10.0987 3.45759L10.8372 4.68964L11.791 4.09221L11.0154 7.19477Z" fill="#000C0F"/>
</svg>